<?xml version="1.0" encoding="UTF-8" standalone="no"?>
<!-- Created with Inkscape (http://www.inkscape.org/) -->

<svg
   width="210mm"
   height="297mm"
   viewBox="0 0 210 297"
   version="1.1"
   id="svg5"
   xml:space="preserve"
   inkscape:version="1.2.1 (9c6d41e410, 2022-07-14)"
   sodipodi:docname="MovieDump.svg"
   xmlns:inkscape="http://www.inkscape.org/namespaces/inkscape"
   xmlns:sodipodi="http://sodipodi.sourceforge.net/DTD/sodipodi-0.dtd"
   xmlns="http://www.w3.org/2000/svg"
   xmlns:svg="http://www.w3.org/2000/svg"><sodipodi:namedview
     id="namedview7"
     pagecolor="#ffffff"
     bordercolor="#000000"
     borderopacity="0.25"
     inkscape:showpageshadow="2"
     inkscape:pageopacity="0.0"
     inkscape:pagecheckerboard="0"
     inkscape:deskcolor="#d1d1d1"
     inkscape:document-units="mm"
     showgrid="false"
     inkscape:zoom="0.76969697"
     inkscape:cx="396.25984"
     inkscape:cy="564.50787"
     inkscape:window-width="1920"
     inkscape:window-height="1051"
     inkscape:window-x="-9"
     inkscape:window-y="-9"
     inkscape:window-maximized="1"
     inkscape:current-layer="layer1" /><defs
     id="defs2" /><g
     inkscape:label="Layer 1"
     inkscape:groupmode="layer"
     id="layer1"><g
       id="g9844"
       transform="matrix(0.26458333,0,0,0.26458333,32.641668,83.860418)"><linearGradient
         id="SVGID_1_"
         gradientUnits="userSpaceOnUse"
         x1="256"
         x2="256"
         y1="301"
         y2="61"><stop
           offset="0"
           stop-color="#ffe59a"
           id="stop9820" /><stop
           offset="1"
           stop-color="#ffffd5"
           id="stop9822" /></linearGradient><linearGradient
         id="SVGID_2_"
         gradientUnits="userSpaceOnUse"
         x1="256"
         x2="256"
         y1="496"
         y2="16"><stop
           offset="0"
           stop-color="#fd5900"
           id="stop9825" /><stop
           offset="1"
           stop-color="#ffde00"
           id="stop9827" /></linearGradient><g
         id="g9842"><g
           id="g9834"><g
             id="g9832"><path
               d="M 346,61 H 166 c -16.553,0 -30,13.462 -30,30 v 90 c 0,66.167 53.818,120 120,120 66.182,0 120,-53.833 120,-120 V 91 C 376,74.462 362.553,61 346,61 Z"
               fill="url(#SVGID_1_)"
               data-original="url(#SVGID_1_)"
               id="path9830"
               style="fill:url(#SVGID_1_)" /></g></g><g
           id="g9840"><g
             id="g9838"><path
               d="m 241,151 c 0,-8.284 -6.716,-15 -15,-15 -8.284,0 -15,6.716 -15,15 0,8.284 6.716,15 15,15 8.284,0 15,-6.716 15,-15 z m 45,-15 c -8.284,0 -15,6.716 -15,15 0,8.284 6.716,15 15,15 8.284,0 15,-6.716 15,-15 0,-8.284 -6.716,-15 -15,-15 z M 497,16 H 15 C 6.709,16 0,22.709 0,31 v 300 c 0,8.291 6.709,15 15,15 h 482 c 8.291,0 15,-6.709 15,-15 V 31 c 0,-8.291 -6.709,-15 -15,-15 z M 361,181 c 0,57.891 -47.109,105 -105,105 -57.891,0 -105,-47.109 -105,-105 V 91 c 0,-8.291 6.709,-15 15,-15 h 180 c 8.291,0 15,6.709 15,15 z m -94.409,10.591 c -5.684,5.684 -15.498,5.684 -21.182,0 -5.859,-5.859 -15.352,-5.859 -21.211,0 -5.859,5.859 -5.859,15.352 0,21.211 8.511,8.51 19.805,13.198 31.802,13.198 11.997,0 23.291,-4.688 31.802,-13.198 5.859,-5.859 5.859,-15.352 0,-21.211 -5.859,-5.859 -15.352,-5.86 -21.211,0 z M 105,376 H 45 C 20.186,376 0,396.186 0,421 v 60 c 0,8.291 6.709,15 15,15 h 120 c 8.291,0 15,-6.709 15,-15 v -60 c 0,-24.814 -20.186,-45 -45,-45 z m 181,0 h -60 c -24.814,0 -45,20.186 -45,45 v 60 c 0,8.291 6.709,15 15,15 h 120 c 8.291,0 15,-6.709 15,-15 v -60 c 0,-24.814 -20.186,-45 -45,-45 z m 181,0 h -60 c -24.814,0 -45,20.186 -45,45 v 60 c 0,8.291 6.709,15 15,15 h 120 c 8.291,0 15,-6.709 15,-15 v -60 c 0,-24.814 -20.186,-45 -45,-45 z"
               fill="url(#SVGID_2_)"
               data-original="url(#SVGID_2_)"
               id="path9836"
               style="fill:url(#SVGID_2_)" /></g></g></g></g></g></svg>
